<svg xmlns="http://www.w3.org/2000/svg" width="631.558" height="464.525" viewBox="0 0 631.558 464.525"><defs><style>.a{fill:#fce0d3;}.b{fill:#cacaca;}.c{fill:#ffb6b6;}.d{fill:#2f2e41;}.e{fill:#feb8b8;}.f{fill:#de6834;}.g{fill:#fbbebe;}.h{fill:#3f3d56;}.i{fill:#fff;}.j{fill:#e58d30;}.k{fill:#90ac36;}.l{fill:#e58d15;}.m{fill:#e6e6e6;}</style></defs><path class="a" d="M110.573-14.189c64.217-29.65,156.462,60.767,290.961,61.956,48.436.428,70.975-21.056,93.118-33.107C528.381-3.7,550.9-13.873,589.459,2.767c21.645,9.341,44.607,34.3,48.526,58.424,5.134,31.6-13.084,62.57-13.084,62.57l-56.913,62.987s-26.449,29.3-10.282,56.487,63.225,40.978,74.949,52.281c11.225,10.818,48,55.369-7.754,81.737-132.116,62.482-408.94,68.754-532.434,6.273C63.978,369.112,35,351.071,27.313,325.165c-2.89-9.733-7.137-26.824,0-36.423,31.527-42.406,65.154-70.249,65.154-115.3,0-33.762-24.493-58.2-31.2-79.457-8.6-27.273,0-46.218,0-46.218S67.844,5.539,110.573-14.189Z" transform="translate(-23.398 20.157)"/><g transform="translate(0.001 133.422)"><path class="b" d="M392.425,668.886H113.645a.611.611,0,0,1,0-1.128H392.425a.611.611,0,0,1,0,1.128Z" transform="translate(-113.269 -379.383)"/><path class="c" d="M87.619,494.381,85.3,505.838l43.088,14.391,3.42-16.91Z" transform="translate(-37.189 -215.532)"/><path class="d" d="M193.109,644.708l-4.564,22.563h0a14.671,14.671,0,0,1-17.288,11.47l-.467-.094,7.472-36.942Z" transform="translate(-138.346 -368.025)"/><circle class="e" cx="29.257" cy="29.257" r="29.257" transform="translate(70.002 62.519)"/><path class="d" d="M290.95,262.211a33.79,33.79,0,0,0-19.223-14.694l-3.592,2.621v-3.4a31.1,31.1,0,0,0-5.81-.338l-3.1,2.8v-2.571a33.467,33.467,0,0,0-23.087,13.733c-6.729,9.7-7.865,23.2-1.246,32.978,1.817-5.584,4.022-10.823,5.839-16.407a16.528,16.528,0,0,0,4.305.021l2.21-5.158.618,4.94c6.852-.6,17.015-1.908,23.51-3.108l-.632-3.79,3.779,3.149c1.99-.458,3.172-.874,3.074-1.191,4.831,7.788,10.743,12.762,15.574,20.551C295.006,281.364,297.118,272.233,290.95,262.211Z" transform="translate(-164.365 -195.676)"/><ellipse class="d" cx="75.333" cy="21.072" rx="75.333" ry="21.072" transform="translate(33.445 241.085)"/><path class="f" d="M306.035,420.757c-1.006-6.053-2.044-12.222-4.857-17.674-1.849-3.571-4.784-6.975-8.74-7.681a8.454,8.454,0,0,1-2.276-.527c-1.159-.558-16.737-9.451-19.213-11-2.126-1.33-5.482-3.792-7.174-3.792-1.7-.037-8.23,1.482-33.707-.51a92.016,92.016,0,0,0-12.415,6.1c-.082-.054-26.443,14.1-27.433,14.064a5.761,5.761,0,0,0-4.694,2.634,17.04,17.04,0,0,0-2.107,5.194c5.758,12.822,11.026,25.661,16.784,38.483a3.284,3.284,0,0,1,.416,1.579,3.854,3.854,0,0,1-.716,1.579c-2.824,4.536-2.734,10.241-2.426,15.572s.69,10.963-1.692,15.741c-.648,1.312-1.491,2.513-2.107,3.825-1.443,2.971-1.965,12.475-1.122,15.667l105.625,3.026C295.911,496.8,306.035,420.757,306.035,420.757Z" transform="translate(-143.852 -253.745)"/><path class="g" d="M167.1,492.9a18.649,18.649,0,0,0-.063,4.6l1.514,21.741c.142,2.049.282,4.093.474,6.137.363,3.967.906,7.9,1.579,11.832a2.107,2.107,0,0,0,2.16,2.049c6.664,1.41,13.549,1.354,20.35.97,10.378-.579,36.93-1.675,38.552-3.782s.677-5.516-1.438-7.22-37.154-5.858-37.154-5.858a34.526,34.526,0,0,1,2.355-7.844c1.76-4.569,3.4-9.287,3.435-14.182s-1.812-10.04-5.821-12.844c-3.3-2.3-7.544-2.729-11.563-2.634-2.924.084-7.976-.616-10.647.527C168.717,487.325,167.492,490.833,167.1,492.9Z" transform="translate(-136.66 -300.026)"/><path class="d" d="M327.74,585.244a11.347,11.347,0,0,1,5.568-.174c6.053.827,12.2,1.675,17.806,4.093a17.5,17.5,0,0,1,6.922,4.851,24.045,24.045,0,0,1,3.377,6.849l2.023,5.542a26.68,26.68,0,0,1,1.765,6.5c.632,6.633-3.9,12.885-9.609,16.331s-12.422,4.672-18.965,5.958S323.515,637.9,317,639.4a79.015,79.015,0,0,1-9.235,1.817c-6.975.79-14.266-.374-20.893,1.934-2.634.922-5.221,2.292-7.953,2.929a49.493,49.493,0,0,1-5.5.838l-12.543,1.433a68.425,68.425,0,0,1-7.691.59c-5.478,0-10.868-1.3-16.188-2.595a3.084,3.084,0,0,1-2.728-3.54q-.806-7.065-1.41-14.144c-.126-1.533-.221-3.192.616-4.483,1.054-1.579,3.108-2.076,4.984-2.381a130.056,130.056,0,0,1,24.065-1.67c3.06-3.06,8.107-3.076,12.117-4.741a36.033,36.033,0,0,0,4.273-2.323,55.841,55.841,0,0,1,23.458-7.412,21.837,21.837,0,0,0,4.8-.685c3.1-.964,5.932-3.588,9.119-2.945.395-1.09.669-2.55,1.579-3.3.451-.385,1.011-.642,1.428-1.054a4.32,4.32,0,0,0,.827-3.535,10.343,10.343,0,0,1-.105-3.73,5.157,5.157,0,0,1,.585-1.3A7.111,7.111,0,0,1,327.74,585.244Z" transform="translate(-165.37 -343.221)"/><path class="f" d="M174.842,427.305a5.453,5.453,0,0,0-1.169,1.87,88.429,88.429,0,0,0-7.428,30.354A3.035,3.035,0,0,1,165.9,461a6.426,6.426,0,0,1-.774.838,2.908,2.908,0,0,0,.348,4.1q.072.061.147.116c.869-1.636,2.95-2.17,4.8-2.312,8.855-.7,17.505,3.419,26.387,3.108-.627-2.165-1.528-4.246-2.039-6.437-2.26-9.73,3.377-20.324-.079-29.7a7.659,7.659,0,0,0-3.661-4.541,9.751,9.751,0,0,0-2.344-.62c-2.244-.406-6.712-2.139-8.882-1.443-.8.258-1.117,1.011-1.781,1.466C177.016,426.22,175.678,426.457,174.842,427.305Z" transform="translate(-135.579 -273.09)"/><path class="g" d="M353.267,486.394c-2.671-1.143-7.723-.443-10.647-.527-4.019-.095-8.265.332-11.563,2.634-4.009,2.8-5.853,7.95-5.821,12.844s1.675,9.613,3.435,14.182a34.524,34.524,0,0,1,2.355,7.844s-35.038,4.154-37.154,5.858-3.06,5.112-1.438,7.22,52.238,4.223,58.9,2.813a2.107,2.107,0,0,0,2.16-2.049c.673-3.93,1.216-7.865,1.579-11.832.192-2.044.332-4.088.474-6.137l1.514-21.741a18.648,18.648,0,0,0-.063-4.6C356.606,490.833,355.38,487.325,353.267,486.394Z" transform="translate(-191.021 -300.026)"/><path class="f" d="M371.73,425.576c-.664-.455-.98-1.208-1.781-1.466-2.17-.7-6.638,1.038-8.882,1.443a9.754,9.754,0,0,0-2.344.62,7.659,7.659,0,0,0-3.661,4.541c-3.456,9.372,2.181,19.966-.079,29.7-.511,2.191-1.412,4.272-2.039,6.437,8.882.311,17.532-3.809,26.387-3.108,1.849.142,3.93.677,4.8,2.313q.076-.056.147-.116a2.908,2.908,0,0,0,.348-4.1,6.431,6.431,0,0,1-.774-.838,3.034,3.034,0,0,1-.342-1.47,88.431,88.431,0,0,0-7.428-30.354,5.453,5.453,0,0,0-1.169-1.87C374.077,426.457,372.739,426.22,371.73,425.576Z" transform="translate(-217.759 -273.09)"/><path class="c" d="M262.941,518.786l-1.54,11.587-45.426-.426,2.273-17.1Z" transform="translate(-94.157 -223.582)"/><path class="d" d="M419.072,675.73l-4.966,37.362-.473-.063a14.671,14.671,0,0,1-12.61-16.475h0l3.033-22.819Z" transform="translate(-238.664 -381.988)"/><path class="d" d="M189.9,586.979c0,.527-.827,0-.9-.564-.579-4.262-3.962-7.776-7.9-9.483s-8.429-1.8-12.7-1.391c-6.453.611-13.7,3.082-16.057,9.114-.558,1.41-5.789,13.965-5.279,16.789,1.375,7.533,6.527,13.976,12.77,18.438s13.537,7.128,20.813,9.532a360.953,360.953,0,0,0,59,14.092,56.746,56.746,0,0,1,9.63,1.986c2.781.932,5.384,2.328,8.1,3.424,6.322,2.538,13.123,3.445,19.86,4.336,1.148.148,2.465.253,3.314-.527,1.1-1.015.733-2.787.421-4.246a22.837,22.837,0,0,1,2.692-16.2c1.128-1.9,2.595-3.841,2.381-6.035-.253-2.56-2.8-4.372-5.342-4.784s-5.12.2-7.671.527a4.109,4.109,0,0,1-2.608-.258,5.21,5.21,0,0,1-1.022-.906,11.553,11.553,0,0,0-13.455-1.88c-.943.527-2.369-.648-3.35-1.09l-11.079-5.015c-12.727-5.758-25.518-11.542-38.983-15.188a8.187,8.187,0,0,1-3-1.249c-.669-.527-1.148-1.241-1.765-1.828-1.344-1.27-3.215-1.776-4.825-2.676S189.533,588.785,189.9,586.979Z" transform="translate(-127.988 -339.092)"/><circle class="g" cx="7.897" cy="7.897" r="7.897" transform="translate(82.697 224.481)"/><circle class="g" cx="7.897" cy="7.897" r="7.897" transform="translate(100.182 224.481)"/><path class="h" d="M303.759,541.768H195.273a4.783,4.783,0,0,1-4.778-4.777V471.176a4.783,4.783,0,0,1,4.778-4.777H303.759a4.783,4.783,0,0,1,4.777,4.777v65.815A4.783,4.783,0,0,1,303.759,541.768Z" transform="translate(-146.937 -291.597)"/><circle class="i" cx="3.161" cy="3.161" r="3.161" transform="translate(99.155 209.325)"/><path class="h" d="M896.58,349.514H729.744a3.342,3.342,0,0,1-3.338-3.338V314.73h1.335v31.445a2.005,2.005,0,0,0,2,2H896.58a2.005,2.005,0,0,0,2-2V314.51h1.335v31.665A3.342,3.342,0,0,1,896.58,349.514Z" transform="translate(-395.472 -233.737)"/><rect class="h" width="392.045" height="1.335" transform="translate(169.541 80.325)"/><ellipse class="f" cx="11.485" cy="11.485" rx="11.485" ry="11.485" transform="translate(158.085 69.404)"/><ellipse class="f" cx="11.485" cy="11.485" rx="11.485" ry="11.485" transform="translate(274.79 69.404)"/><ellipse class="j" cx="11.485" cy="11.485" rx="11.485" ry="11.485" transform="translate(353.993 103.16)"/><ellipse class="k" cx="11.485" cy="11.485" rx="11.485" ry="11.485" transform="translate(414.203 103.16)"/><ellipse class="f" cx="11.485" cy="11.485" rx="11.485" ry="11.485" transform="translate(385.027 69.404)"/><ellipse class="f" cx="11.485" cy="11.485" rx="11.485" ry="11.485" transform="translate(548.528 69.404)"/><ellipse class="f" cx="11.485" cy="11.485" rx="11.485" ry="11.485" transform="translate(492.294 69.404)"/><rect class="l" width="35" height="24.122" transform="translate(326.264 -6.728)"/><rect class="f" width="35" height="24.122" transform="translate(130.697 -6.728)"/><rect class="k" width="35" height="24.122" transform="translate(202.85 -6.728)"/><path class="h" d="M537.719,297.439a.668.668,0,0,1-.668-.668V263.815a3.342,3.342,0,0,1,3.338-3.338h32.5a.668.668,0,0,1,0,1.335h-32.5a2.005,2.005,0,0,0-2,2v32.956a.668.668,0,0,1-.668.668Z" transform="translate(-332.536 -215.778)"/><ellipse class="m" cx="11.485" cy="11.485" rx="11.485" ry="11.485" transform="translate(230.392 33.632)"/><path class="h" d="M922.387,296.771h-1.335V263.815a3.342,3.342,0,0,1,3.338-3.338h32.5v1.335h-32.5a2.005,2.005,0,0,0-2,2Z" transform="translate(-460.167 -215.778)"/><ellipse class="k" cx="11.485" cy="11.485" rx="11.485" ry="11.485" transform="translate(486.762 33.632)"/></g></svg>