<svg xmlns="http://www.w3.org/2000/svg" xmlns:xlink="http://www.w3.org/1999/xlink" width="487.267" height="255.681" viewBox="0 0 487.267 255.681"><defs><style>.a,.d,.e,.j{opacity:0.1;}.b{fill:#3f3d56;}.c,.e{fill:#de6834;}.f,.j{fill:none;stroke-miterlimit:10;}.f{stroke:#3f3d56;stroke-width:4px;}.g{fill:url(#a);}.h{fill:#be6f72;}.i{fill:#ff6f61;}.j{stroke:#000;}.k{fill:url(#b);}.l{fill:#2f2e41;}.m{fill:#fbbebe;}.n{fill:#e8e8f0;}.o{fill:#f86d70;}</style><linearGradient id="a" x1="0.5" y1="1" x2="0.5" gradientUnits="objectBoundingBox"><stop offset="0" stop-color="gray" stop-opacity="0.251"/><stop offset="0.54" stop-color="gray" stop-opacity="0.122"/><stop offset="1" stop-color="gray" stop-opacity="0.102"/></linearGradient><linearGradient id="b" x1="0.5" y1="1" x2="0.5" y2="-0.001" xlink:href="#a"/></defs><g transform="translate(0 0.359)"><g class="a" transform="translate(189.015 17.425)"><ellipse class="b" cx="5.059" cy="6.624" rx="5.059" ry="6.624" transform="translate(19.069 136.745)"/><path class="b" d="M529.082,447.665a8,8,0,0,0,1.058-4.05c0-3.659-2.267-6.624-5.064-6.624S520,439.964,520,443.623a8,8,0,0,0,1.058,4.05,8.274,8.274,0,0,0,0,8.1,8.274,8.274,0,0,0,0,8.1,7.975,7.975,0,0,0-1.058,4.05c0,3.655,2.267,6.624,5.059,6.624s5.064-2.97,5.064-6.624a7.976,7.976,0,0,0-1.058-4.05,8.274,8.274,0,0,0,0-8.1,8.274,8.274,0,0,0,0-8.1Z" transform="translate(-500.949 -332.637)"/><ellipse class="b" cx="5.059" cy="6.624" rx="5.059" ry="6.624" transform="translate(19.069 96.266)"/><ellipse class="b" cx="5.059" cy="6.624" rx="5.059" ry="6.624" transform="translate(19.069 88.17)"/><path class="c" d="M482.338,241.657a23.6,23.6,0,0,1-1.885-2.774l13.293-2.183-14.378.107a24.283,24.283,0,0,1-.445-19.206l19.291,10.008-17.783-13.08a24.243,24.243,0,1,1,40.013,27.12,24.247,24.247,0,0,1,2.765,4.419l-17.263,8.99,18.4-6.175a24.243,24.243,0,0,1-3.908,22.763,24.239,24.239,0,1,1-38.1,0,24.239,24.239,0,0,1,0-29.974Z" transform="translate(-477.149 -202.271)"/><path class="d" d="M525.627,324.124a24.128,24.128,0,0,1-5.188,14.987,24.239,24.239,0,1,1-38.1,0C479.088,334.985,525.627,321.4,525.627,324.124Z" transform="translate(-477.149 -269.751)"/></g><g class="a" transform="translate(254.179 39.579)"><ellipse class="b" cx="3.783" cy="4.948" rx="3.783" ry="4.948" transform="translate(14.249 102.102)"/><path class="b" d="M662.535,435.3a5.971,5.971,0,0,0,.787-3.023c0-2.734-1.694-4.953-3.779-4.953s-3.783,2.223-3.783,4.953a5.928,5.928,0,0,0,.791,3.023,6.18,6.18,0,0,0,0,6.051,6.18,6.18,0,0,0,0,6.051,5.927,5.927,0,0,0-.791,3.023c0,2.734,1.694,4.953,3.783,4.953s3.779-2.223,3.779-4.953a5.97,5.97,0,0,0-.787-3.023,6.224,6.224,0,0,0,0-6.051A6.224,6.224,0,0,0,662.535,435.3Z" transform="translate(-641.515 -349.421)"/><ellipse class="b" cx="3.783" cy="4.948" rx="3.783" ry="4.948" transform="translate(14.249 71.853)"/><ellipse class="b" cx="3.783" cy="4.948" rx="3.783" ry="4.948" transform="translate(14.249 65.802)"/><path class="c" d="M627.6,281.449a17.339,17.339,0,0,1-1.409-2.072l9.937-1.632-10.746.08a18.157,18.157,0,0,1-.347-14.356l14.418,7.482-13.3-9.781a18.117,18.117,0,1,1,29.916,20.273,18.321,18.321,0,0,1,2.067,3.3l-12.893,6.7,13.751-4.615a18.121,18.121,0,0,1-2.921,17.01,18.112,18.112,0,1,1-28.454,0,18.112,18.112,0,0,1,0-22.4Z" transform="translate(-623.72 -252.103)"/><path class="d" d="M659.956,342.967a18.037,18.037,0,0,1-3.877,11.2,18.112,18.112,0,1,1-28.453,0C625.189,351.085,659.956,340.935,659.956,342.967Z" transform="translate(-623.731 -302.422)"/></g><g class="a" transform="translate(437.269 -0.359)"><ellipse class="b" cx="5.059" cy="6.624" rx="5.059" ry="6.624" transform="translate(19.41 136.745)"/><path class="b" d="M1080.248,407.665a8,8,0,0,1-1.058-4.05c0-3.659,2.267-6.624,5.064-6.624s5.059,2.965,5.059,6.624a8,8,0,0,1-1.058,4.05,8.274,8.274,0,0,1,0,8.1,8.274,8.274,0,0,1,0,8.1,7.975,7.975,0,0,1,1.058,4.05c0,3.655-2.267,6.624-5.059,6.624s-5.064-2.97-5.064-6.624a7.975,7.975,0,0,1,1.058-4.05,8.274,8.274,0,0,1,0-8.1A8.274,8.274,0,0,1,1080.248,407.665Z" transform="translate(-1059.784 -292.637)"/><ellipse class="b" cx="5.059" cy="6.624" rx="5.059" ry="6.624" transform="translate(19.41 96.266)"/><ellipse class="b" cx="5.059" cy="6.624" rx="5.059" ry="6.624" transform="translate(19.41 88.17)"/><path class="c" d="M1078.95,201.657a23.6,23.6,0,0,0,1.885-2.774l-13.293-2.183,14.378.107a24.283,24.283,0,0,0,.445-19.206l-19.291,10.008,17.783-13.08a24.243,24.243,0,1,0-40.013,27.12,24.253,24.253,0,0,0-2.765,4.419l17.263,8.99-18.4-6.175a24.243,24.243,0,0,0,3.908,22.763,24.239,24.239,0,1,0,38.1,0,24.239,24.239,0,0,0,0-29.974Z" transform="translate(-1035.541 -162.271)"/><path class="d" d="M1035.81,284.124A24.128,24.128,0,0,0,1041,299.111a24.239,24.239,0,1,0,38.1,0C1082.349,294.985,1035.81,281.4,1035.81,284.124Z" transform="translate(-1035.69 -229.751)"/></g><g class="a" transform="translate(394.684 36.912)"><ellipse class="b" cx="3.783" cy="4.948" rx="3.783" ry="4.948" transform="translate(14.428 102.102)"/><path class="b" d="M973.016,429.3a5.971,5.971,0,0,1-.787-3.023c0-2.734,1.694-4.953,3.779-4.953s3.783,2.223,3.783,4.953A5.926,5.926,0,0,1,979,429.3a6.18,6.18,0,0,1,0,6.051,6.18,6.18,0,0,1,0,6.051,5.926,5.926,0,0,1,.791,3.023c0,2.734-1.694,4.953-3.783,4.953s-3.779-2.223-3.779-4.953a5.97,5.97,0,0,1,.787-3.023,6.224,6.224,0,0,1,0-6.051,6.224,6.224,0,0,1,0-6.051Z" transform="translate(-957.792 -343.421)"/><ellipse class="b" cx="3.783" cy="4.948" rx="3.783" ry="4.948" transform="translate(14.428 71.853)"/><ellipse class="b" cx="3.783" cy="4.948" rx="3.783" ry="4.948" transform="translate(14.428 65.802)"/><path class="c" d="M972.124,275.449a17.333,17.333,0,0,0,1.409-2.072l-9.937-1.632,10.746.08a18.157,18.157,0,0,0,.347-14.356l-14.418,7.482,13.3-9.781a18.117,18.117,0,1,0-29.916,20.273,18.318,18.318,0,0,0-2.067,3.3l12.893,6.7-13.724-4.61a18.121,18.121,0,0,0,2.921,17.01,18.112,18.112,0,1,0,28.454,0,18.113,18.113,0,0,0,0-22.4Z" transform="translate(-939.756 -246.103)"/><path class="d" d="M939.789,336.967a18.038,18.038,0,0,0,3.877,11.2,18.112,18.112,0,1,0,28.453,0C974.555,345.085,939.789,334.935,939.789,336.967Z" transform="translate(-939.769 -296.422)"/></g><g class="a" transform="translate(3.25 -0.284)"><ellipse class="b" cx="5.059" cy="6.624" rx="5.059" ry="6.624" transform="translate(19.073 136.671)"/><path class="b" d="M111.27,407.665a8,8,0,0,0,1.058-4.05c0-3.659-2.267-6.624-5.059-6.624s-5.059,2.965-5.059,6.624a8,8,0,0,0,1.054,4.05,8.3,8.3,0,0,0,0,8.1,8.3,8.3,0,0,0,0,8.1,7.972,7.972,0,0,0-1.054,4.05c0,3.655,2.263,6.624,5.059,6.624s5.073-2.961,5.073-6.615a7.976,7.976,0,0,0-1.058-4.05,8.274,8.274,0,0,0,0-8.1,8.274,8.274,0,0,0,0-8.1Z" transform="translate(-83.136 -292.712)"/><ellipse class="b" cx="5.059" cy="6.624" rx="5.059" ry="6.624" transform="translate(19.073 96.191)"/><ellipse class="b" cx="5.059" cy="6.624" rx="5.059" ry="6.624" transform="translate(19.073 88.095)"/><path class="c" d="M64.507,201.75a24.152,24.152,0,0,1-1.885-2.774l13.3-2.183-14.391.129a24.283,24.283,0,0,1-.445-19.206l19.3,10.008L62.6,174.643a24.239,24.239,0,1,1,40.013,27.12,24.248,24.248,0,0,1,2.765,4.419l-17.268,8.967,18.406-6.175a24.27,24.27,0,0,1-3.912,22.763,24.239,24.239,0,1,1-38.1,0,24.239,24.239,0,0,1,0-29.974Z" transform="translate(-59.309 -162.439)"/><path class="d" d="M107.787,284.124a24.128,24.128,0,0,1-5.188,14.987,24.239,24.239,0,1,1-38.1,0C61.248,294.985,107.787,281.4,107.787,284.124Z" transform="translate(-59.309 -229.826)"/></g><g class="a" transform="translate(58.188 36.912)"><ellipse class="b" cx="3.783" cy="4.948" rx="3.783" ry="4.948" transform="translate(14.249 102.102)"/><path class="b" d="M221.705,429.3a5.971,5.971,0,0,0,.787-3.023c0-2.734-1.689-4.953-3.779-4.953s-3.783,2.223-3.783,4.953a5.971,5.971,0,0,0,.791,3.023,6.18,6.18,0,0,0,0,6.051,6.18,6.18,0,0,0,0,6.051,5.971,5.971,0,0,0-.791,3.023c0,2.734,1.694,4.953,3.783,4.953s3.779-2.223,3.779-4.953a5.971,5.971,0,0,0-.787-3.023,6.224,6.224,0,0,0,0-6.051,6.224,6.224,0,0,0,0-6.051Z" transform="translate(-200.681 -343.421)"/><ellipse class="b" cx="3.783" cy="4.948" rx="3.783" ry="4.948" transform="translate(14.249 71.853)"/><ellipse class="b" cx="3.783" cy="4.948" rx="3.783" ry="4.948" transform="translate(14.249 65.802)"/><path class="c" d="M186.757,275.449a17.873,17.873,0,0,1-1.409-2.072l9.937-1.632-10.746.08a18.157,18.157,0,0,1-.347-14.356l14.418,7.482-13.3-9.781a18.117,18.117,0,1,1,29.916,20.273,17.837,17.837,0,0,1,2.067,3.3l-12.893,6.7,13.751-4.615a18.121,18.121,0,0,1-2.921,17.01,18.112,18.112,0,1,1-28.454,0,18.113,18.113,0,0,1,0-22.4Z" transform="translate(-182.88 -246.103)"/><path class="d" d="M219.116,336.967a18.037,18.037,0,0,1-3.877,11.2,18.112,18.112,0,1,1-28.454,0C184.34,345.085,219.116,334.935,219.116,336.967Z" transform="translate(-182.891 -296.422)"/></g><ellipse class="e" cx="243.633" cy="3.939" rx="243.633" ry="3.939" transform="translate(0 215.101)"/><ellipse class="e" cx="243.633" cy="3.939" rx="243.633" ry="3.939" transform="translate(0 247.444)"/><ellipse class="e" cx="243.633" cy="3.939" rx="243.633" ry="3.939" transform="translate(0 147.599)"/><ellipse class="e" cx="243.633" cy="3.939" rx="243.633" ry="3.939" transform="translate(0 181.348)"/><path class="e" d="M830.337,259.47a8.136,8.136,0,0,0-4.713.516,6.958,6.958,0,0,1-5.664,0,7.949,7.949,0,0,0-6.669.129,4.108,4.108,0,0,1-1.916.48c-2.7,0-4.948-2.721-5.415-6.309a5.283,5.283,0,0,0,1.334-1.454,7.588,7.588,0,0,1,13.547-.049,5.193,5.193,0,0,0,4.486,2.463h.071C827.571,255.224,829.434,256.949,830.337,259.47Z" transform="translate(-470.76 -210.6)"/><path class="e" d="M838.555,235.659l-4.366,2.765,2.667-4.819a4.313,4.313,0,0,0-2.641-.938h-.071a5.046,5.046,0,0,1-.889-.067l-1.5.938.636-1.156a5.242,5.242,0,0,1-2.592-1.965l-2.667,1.681,1.672-3.041a7.747,7.747,0,0,0-5.931-3,8.136,8.136,0,0,0-6.793,4.188,5.073,5.073,0,0,1-4.486,2.419h-.147c-3.041,0-5.5,3.446-5.5,7.7s2.463,7.7,5.5,7.7a4.174,4.174,0,0,0,1.916-.48,7.94,7.94,0,0,1,6.669-.133,6.913,6.913,0,0,0,5.664,0,7.967,7.967,0,0,1,6.607.129,4.134,4.134,0,0,0,1.894.471c3.041,0,5.5-3.45,5.5-7.7a9.75,9.75,0,0,0-1.142-4.69Z" transform="translate(-470.749 -198.059)"/><path class="e" d="M421.954,258.12a5.709,5.709,0,0,0-3.3.36,4.855,4.855,0,0,1-3.961,0,5.548,5.548,0,0,0-4.664.093,2.943,2.943,0,0,1-1.334.333c-1.889,0-3.463-1.9-3.792-4.415a3.7,3.7,0,0,0,.947-1.018,5.313,5.313,0,0,1,9.483-.036,3.641,3.641,0,0,0,3.143,1.725h.049C420.016,255.155,421.319,256.364,421.954,258.12Z" transform="translate(-248.006 -211.656)"/><path class="e" d="M427.7,241.462l-3.054,1.938,1.854-3.374a3,3,0,0,0-1.845-.658H424.6a3.329,3.329,0,0,1-.631-.049l-1.036.658.445-.809a3.69,3.69,0,0,1-1.814-1.374l-1.854,1.174,1.174-2.125a5.428,5.428,0,0,0-4.152-2.1,5.687,5.687,0,0,0-4.753,2.934,3.557,3.557,0,0,1-3.143,1.694h-.1c-2.13,0-3.855,2.41-3.855,5.388s1.725,5.388,3.855,5.388a2.89,2.89,0,0,0,1.334-.338,5.557,5.557,0,0,1,4.659-.089,4.775,4.775,0,0,0,3.966.027,5.575,5.575,0,0,1,4.624.089,2.881,2.881,0,0,0,1.334.329c2.125,0,3.85-2.414,3.85-5.388a6.816,6.816,0,0,0-.8-3.312Z" transform="translate(-247.994 -202.88)"/><path class="e" d="M321.59,336.53a5.7,5.7,0,0,1,3.3.36,4.864,4.864,0,0,0,3.966,0,5.566,5.566,0,0,1,4.664.089,2.876,2.876,0,0,0,1.334.338c1.89,0,3.463-1.907,3.788-4.419a3.623,3.623,0,0,1-.943-1.018,5.318,5.318,0,0,0-9.487-.031,3.641,3.641,0,0,1-3.139,1.725h-.049C323.524,333.583,322.217,334.787,321.59,336.53Z" transform="translate(-201.734 -255.206)"/><path class="e" d="M307.646,319.908l3.059,1.938-1.858-3.37a3.019,3.019,0,0,1,1.849-.662h.049a3.786,3.786,0,0,0,.636-.044l1.036.654-.445-.8a3.686,3.686,0,0,0,1.809-1.374l1.854,1.174-1.156-2.13a5.424,5.424,0,0,1,4.152-2.1,5.692,5.692,0,0,1,4.753,2.934,3.557,3.557,0,0,0,3.139,1.694h.107c2.125,0,3.85,2.414,3.85,5.388s-1.725,5.388-3.85,5.388a2.886,2.886,0,0,1-1.334-.333,5.548,5.548,0,0,0-4.664-.093,4.828,4.828,0,0,1-1.992.445,4.891,4.891,0,0,1-1.974-.418,5.566,5.566,0,0,0-4.619.089,2.881,2.881,0,0,1-1.334.329c-2.13,0-3.855-2.41-3.855-5.388a6.865,6.865,0,0,1,.787-3.317Z" transform="translate(-193.551 -246.452)"/><path class="f" d="M710.077,593.75c1.16-2.152-.156-4.784-1.667-6.7s-3.361-3.912-3.321-6.353c.058-3.508,3.783-5.584,6.758-7.442a33.033,33.033,0,0,0,6.069-4.89,8.948,8.948,0,0,0,1.863-2.5,10.1,10.1,0,0,0,.56-4.446q-.191-7.509-.742-15.009" transform="translate(-414.734 -375.986)"/><path class="c" d="M736.783,539.328a5.473,5.473,0,0,0-2.734-4.486l-1.227,2.423.04-2.934a5.473,5.473,0,1,0,3.921,5Z" transform="translate(-426.262 -369.153)"/><path class="c" d="M715.573,619.264a5.473,5.473,0,0,1-10.332-2.223,5.336,5.336,0,0,1,.356-2.223,5.477,5.477,0,0,1,10.226.058l-3.419,2.783,3.761-.889A5.442,5.442,0,0,1,715.573,619.264Z" transform="translate(-414.814 -412.046)"/><path class="c" d="M715.25,591.6a5.473,5.473,0,0,1-1.734-10.737l-.031,2.254,1.24-2.454h0a5.474,5.474,0,1,1,.511,10.937Z" transform="translate(-417.195 -395.007)"/><path class="c" d="M745.11,571.715a5.473,5.473,0,1,1,2.419-10.225l-.965,2.667,1.969-1.947a5.473,5.473,0,0,1-3.441,9.5Z" transform="translate(-433.766 -383.965)"/><path class="d" d="M736.034,544.537c-1.263.138-2.49.529-3.761.609a4.069,4.069,0,0,1-3.459-1.209,17.555,17.555,0,0,1-1.014-1.778,3.894,3.894,0,0,0-1.378-1.3,5.473,5.473,0,1,0,10.225,3.637C736.448,544.5,736.239,544.515,736.034,544.537Z" transform="translate(-426.251 -372.903)"/><path class="d" d="M745.139,575.627a5.473,5.473,0,0,1-5.206-7.807,4.05,4.05,0,0,1,1.1,1.1,18.538,18.538,0,0,0,1.085,1.81A4.465,4.465,0,0,0,745.749,572c1.32-.067,2.6-.445,3.912-.556.182,0,.365-.027.551-.031a5.473,5.473,0,0,1-5.073,4.215Z" transform="translate(-433.796 -387.877)"/><path class="d" d="M715.253,595.645a5.473,5.473,0,0,1-5.25-7.7,4.446,4.446,0,0,1,1.16,1.111,18.337,18.337,0,0,0,1.187,1.845,4.956,4.956,0,0,0,3.872,1.334c1.4-.058,2.667-.36,4-.445a5.482,5.482,0,0,1-4.97,3.859Z" transform="translate(-417.198 -399.052)"/><path class="d" d="M715.573,623.616a5.473,5.473,0,0,1-10.332-2.223,5.336,5.336,0,0,1,.356-2.223,5.462,5.462,0,0,1,1.2,1.071c.52.631.862,1.334,1.467,1.943a6.839,6.839,0,0,0,4.53,1.592A23,23,0,0,0,715.573,623.616Z" transform="translate(-414.814 -416.398)"/><path class="f" d="M100.077,521.75c1.16-2.152-.156-4.784-1.667-6.7s-3.361-3.921-3.321-6.353c.058-3.508,3.783-5.584,6.758-7.442a33.035,33.035,0,0,0,6.069-4.89,8.951,8.951,0,0,0,1.863-2.5,10.105,10.105,0,0,0,.56-4.446q-.2-7.509-.742-15.009" transform="translate(-75.932 -335.996)"/><path class="c" d="M126.783,467.328a5.473,5.473,0,0,0-2.734-4.486l-1.227,2.423.04-2.934a5.473,5.473,0,1,0,3.921,5Z" transform="translate(-87.459 -329.163)"/><path class="c" d="M105.572,547.264a5.473,5.473,0,0,1-10.332-2.223,5.335,5.335,0,0,1,.356-2.223,5.477,5.477,0,0,1,10.225.058l-3.419,2.783,3.761-.889a5.442,5.442,0,0,1-.591,2.494Z" transform="translate(-76.012 -372.056)"/><path class="c" d="M105.25,519.6a5.473,5.473,0,0,1-1.734-10.737l-.031,2.254,1.24-2.454h0a5.474,5.474,0,1,1,.511,10.937Z" transform="translate(-78.393 -355.017)"/><path class="c" d="M135.11,499.715a5.473,5.473,0,1,1,2.419-10.225l-.965,2.668,1.97-1.947a5.473,5.473,0,0,1-3.441,9.5Z" transform="translate(-94.964 -343.975)"/><path class="d" d="M126.034,472.537c-1.263.138-2.49.529-3.761.609a4.069,4.069,0,0,1-3.459-1.209,17.553,17.553,0,0,1-1.014-1.778,3.9,3.9,0,0,0-1.378-1.3,5.473,5.473,0,1,0,10.225,3.637C126.448,472.5,126.239,472.514,126.034,472.537Z" transform="translate(-87.449 -332.914)"/><path class="d" d="M135.14,503.627a5.473,5.473,0,0,1-5.206-7.807,4.05,4.05,0,0,1,1.1,1.1,18.55,18.55,0,0,0,1.085,1.809A4.465,4.465,0,0,0,135.749,500c1.32-.067,2.6-.445,3.912-.556.182,0,.365-.027.551-.031A5.473,5.473,0,0,1,135.14,503.627Z" transform="translate(-94.993 -347.888)"/><path class="d" d="M105.253,523.645a5.473,5.473,0,0,1-5.251-7.7,4.446,4.446,0,0,1,1.16,1.112,18.325,18.325,0,0,0,1.187,1.845,4.956,4.956,0,0,0,3.872,1.334c1.4-.058,2.668-.36,4-.445A5.482,5.482,0,0,1,105.253,523.645Z" transform="translate(-78.395 -359.062)"/><path class="d" d="M105.572,551.616a5.473,5.473,0,0,1-10.332-2.223,5.335,5.335,0,0,1,.356-2.223,5.464,5.464,0,0,1,1.2,1.071c.52.631.862,1.334,1.467,1.943a6.839,6.839,0,0,0,4.53,1.592,22.988,22.988,0,0,0,2.779-.16Z" transform="translate(-76.012 -376.408)"/><path class="f" d="M499.683,439.391c-1.16-2.147.156-4.779,1.672-6.7s3.357-3.912,3.317-6.353c-.053-3.512-3.779-5.584-6.758-7.442a32.9,32.9,0,0,1-6.064-4.89,8.794,8.794,0,0,1-1.867-2.494,10.245,10.245,0,0,1-.56-4.446q.2-7.509.742-15.009" transform="translate(-294.942 -290.258)"/><path class="c" d="M478.383,384.969a5.468,5.468,0,0,1,2.73-4.486l1.227,2.423-.036-2.934a5.612,5.612,0,0,1,1.8-.218,5.473,5.473,0,1,1-5.722,5.215Z" transform="translate(-288.815 -283.42)"/><path class="c" d="M499.585,464.848a5.473,5.473,0,1,0-.262-4.406l3.419,2.783-3.761-.889A5.442,5.442,0,0,0,499.585,464.848Z" transform="translate(-300.259 -326.257)"/><path class="c" d="M499.9,437.238a5.473,5.473,0,0,0,1.738-10.737l.027,2.254-1.24-2.454h0a5.473,5.473,0,0,0-5.735,5.2,5.406,5.406,0,0,0,.236,1.867,5.468,5.468,0,0,0,4.975,3.872Z" transform="translate(-297.873 -309.272)"/><path class="c" d="M470,417.334a5.473,5.473,0,1,0-2.423-10.225l.969,2.668-1.992-1.907a5.428,5.428,0,0,0-1.778,3.779,5.294,5.294,0,0,0,.138,1.507A5.468,5.468,0,0,0,470,417.334Z" transform="translate(-281.26 -298.22)"/><path class="d" d="M479.283,390.177c1.263.138,2.49.529,3.757.609a4.088,4.088,0,0,0,3.463-1.209,17.509,17.509,0,0,0,1.009-1.778,3.908,3.908,0,0,1,1.383-1.3,5.473,5.473,0,1,1-10.226,3.632C478.87,390.137,479.075,390.154,479.283,390.177Z" transform="translate(-288.978 -287.17)"/><path class="d" d="M470.2,421.247a5.477,5.477,0,0,0,5.206-7.807,4.068,4.068,0,0,0-1.1,1.1,18.55,18.55,0,0,1-1.085,1.809,4.45,4.45,0,0,1-3.628,1.267c-1.32-.067-2.6-.445-3.912-.556-.182,0-.369-.027-.551-.031a5.468,5.468,0,0,0,5.073,4.215Z" transform="translate(-281.458 -302.133)"/><path class="d" d="M500.211,441.285a5.468,5.468,0,0,0,5.251-7.7,4.37,4.37,0,0,0-1.156,1.111,18.329,18.329,0,0,1-1.187,1.845,4.966,4.966,0,0,1-3.877,1.334c-1.4-.058-2.668-.36-4-.445A5.468,5.468,0,0,0,500.211,441.285Z" transform="translate(-298.182 -313.319)"/><path class="d" d="M500.34,469.256a5.473,5.473,0,0,0,9.981-4.446,5.254,5.254,0,0,0-1.2,1.071c-.52.631-.889,1.334-1.467,1.943a6.851,6.851,0,0,1-4.535,1.592A23.991,23.991,0,0,1,500.34,469.256Z" transform="translate(-301.014 -330.664)"/><circle class="b" cx="44.441" cy="44.441" r="44.441" transform="translate(302.216 61.251)"/><path class="c" d="M825.5,386.966a33.669,33.669,0,0,0-7.113-4.753c-2.13-1.023-2.912-1-4.419.084-1.254.889-2.067,1.747-3.508,1.432s-4.295-2.467-7.056-5.219-4.9-5.588-5.211-7.051.538-2.258,1.436-3.512c1.085-1.507,1.116-2.29.084-4.419a34.094,34.094,0,0,0-4.757-7.113c-1.56-1.556-1.9-1.214-2.752-.889a15.909,15.909,0,0,0-2.521,1.334,7.605,7.605,0,0,0-3.023,3.2c-.609,1.3-1.3,3.708,2.245,10.017a55.881,55.881,0,0,0,9.825,13.1h0a55.964,55.964,0,0,0,13.146,9.843c6.3,3.557,8.718,2.85,10.016,2.245a7.463,7.463,0,0,0,3.192-3.023,15.7,15.7,0,0,0,1.334-2.521C826.716,388.864,827.063,388.517,825.5,386.966Z" transform="translate(-459.768 -269.812)"/><path class="d" d="M776.161,300.86A44.459,44.459,0,1,0,820.6,345.3,44.459,44.459,0,0,0,776.161,300.86Zm0,82.969A38.532,38.532,0,1,1,814.693,345.3,38.532,38.532,0,0,1,776.161,383.829Z" transform="translate(-429.504 -239.604)"/><circle class="b" cx="44.441" cy="44.441" r="44.441" transform="translate(200.117 128.753)"/><path class="c" d="M595.23,522.322,581.923,535.86a.24.24,0,0,0,0,.347l9.336,9.928a1.606,1.606,0,1,1-2.272,2.272l-9.287-9.892a.253.253,0,0,0-.356,0l-2.263,2.285a9.946,9.946,0,0,1-7.113,2.992,10.163,10.163,0,0,1-7.238-3.077l-2.174-2.223a.253.253,0,0,0-.356,0l-9.265,9.87a1.606,1.606,0,1,1-2.272-2.272l9.3-9.905a.267.267,0,0,0,0-.347L544.658,522.3a.245.245,0,0,0-.418.173v27.089a3.966,3.966,0,0,0,3.952,3.952H591.7a3.966,3.966,0,0,0,3.952-3.952V522.5a.245.245,0,0,0-.427-.173Z" transform="translate(-325.397 -362.555)"/><path class="c" d="M571.849,535.246a6.731,6.731,0,0,0,4.855-2l19.38-19.726a3.868,3.868,0,0,0-2.445-.889H550.1a3.841,3.841,0,0,0-2.445.889l19.384,19.726A6.7,6.7,0,0,0,571.849,535.246Z" transform="translate(-327.291 -357.224)"/><path class="d" d="M545.251,452.69a44.459,44.459,0,1,0,44.436,44.444A44.459,44.459,0,0,0,545.251,452.69Zm0,82.969a38.532,38.532,0,1,1,38.532-38.532A38.532,38.532,0,0,1,545.251,535.659Z" transform="translate(-301.253 -323.933)"/><circle class="b" cx="44.441" cy="44.441" r="44.441" transform="translate(94.648 95.565)"/><path class="c" d="M342.717,430.16,325,471.035l1.654,1.654,16.067-7.087,16.067,7.087,1.654-1.654Z" transform="translate(-203.628 -311.419)"/><path class="d" d="M309.281,378a44.433,44.433,0,1,0,.007,0Zm0,82.969a31.689,31.689,0,1,1,0,.018Z" transform="translate(-170.192 -282.449)"/><path class="g" d="M814.418,579.764q-.6-1.476-1.24-2.943a8.736,8.736,0,0,0-1.516-2.619,2.773,2.773,0,0,0-.889-.667,3.791,3.791,0,0,0-1.16-.231,9.26,9.26,0,0,0-1.823-.049c-.236-.071-.5-.164-.765-.271a6.349,6.349,0,0,0,4.73-5.891c0-.089,0-.182,0-.271a6.335,6.335,0,0,0-6.309-6.362,6.224,6.224,0,0,0-3.312.947,5.944,5.944,0,0,0-6.669,3.214,7.349,7.349,0,0,0-2.267,5.468v.28c.116,3.454,2.347,6.224,5.166,6.5a2.961,2.961,0,0,0-.818.547,5.06,5.06,0,0,0-1.1,3.352l-.067.889-1.494.533a.276.276,0,0,0-.067.485l1.427,1.018v.253a1.112,1.112,0,0,0,.027.289,2.041,2.041,0,0,0-.551.787,3.635,3.635,0,0,0-.129,1.44l.053,1.24a9.741,9.741,0,0,0,.378,2.761c.187.551,1,1.881,1.578,1.89a57.513,57.513,0,0,0-.68,7.6c-.067.067.12.129.445.182.32,2.454,1.365,9.336,3.219,12.364a26.052,26.052,0,0,1,.7,3.005s.529,6.54,1.227,8.483a43.186,43.186,0,0,1,1.2,6.918.68.68,0,0,0-.493.507c-.351,1.058-2.628,2.668-2.628,2.668a11,11,0,0,0-1.965,1.258c-.716.645-.689,1.227,2.49.862,6.135-.707,7.185-2.667,7.185-2.667s-.1-.329-.245-.756a8.209,8.209,0,0,0-.8-1.9c-.089-.084-.178.058-.285.28a38.064,38.064,0,0,1-.418-8.585,13.931,13.931,0,0,0-.7-5.126,9.705,9.705,0,0,1,0-3.357c.351-1.414-1.4-8.309-1.4-8.309l-1-5.077a1.459,1.459,0,0,1,.28.591l.027.1.027.147a.276.276,0,0,0,.071.138c.685,2.845,2.561,10.728,2.561,11.884,0,1.414,1.752,4.948,1.752,4.948s.7,5.833,1.925,8.127a11.782,11.782,0,0,1,.911,5.437h0a5.035,5.035,0,0,1-.56,1.805,4.293,4.293,0,0,0-.662,1.151l-.04.084s-.525,1.063-.173,1.24a8.611,8.611,0,0,0,4.206.529s.7-.889.7-1.236a5.573,5.573,0,0,0-.08-.631c-.129-.836-.369-2.152-.373-2.165a6.068,6.068,0,0,0-.445-2.152l-.178-4.948a22.843,22.843,0,0,0-1.227-9.9s-.889-3.179-.7-4.064-.351-10.252-.351-10.252l-.053-.133a10.126,10.126,0,0,1,.053-1.987,26.4,26.4,0,0,0-.7-6.713,5.824,5.824,0,0,1-.249-1.463c.04-.369.16-1.449.324-2.792a50.205,50.205,0,0,0,5.166-.445.645.645,0,0,0,.445-.178.623.623,0,0,0,.1-.36C816.4,584.814,815.427,582.227,814.418,579.764Zm-3.526,5.606c.182-1.267.378-2.494.574-3.406l.027.08a24.745,24.745,0,0,1,.845,2.8A9.527,9.527,0,0,1,810.892,585.37Z" transform="translate(-463.671 -383.789)"/><path class="h" d="M802.37,648.247s1.049,9.439,3.321,13.106a25.436,25.436,0,0,1,.7,2.97s.525,6.464,1.223,8.385a46.255,46.255,0,0,1,1.223,7.167s2.445,2.792,3.321.525a36.823,36.823,0,0,1-.525-9.087,13.685,13.685,0,0,0-.7-5.068,9.478,9.478,0,0,1,0-3.317c.347-1.4-1.4-8.211-1.4-8.211l-1.4-6.816Z" transform="translate(-468.766 -432.355)"/><path class="i" d="M814.607,721.62s-1.049,1.921-7.162,2.619c-3.174.36-3.2-.213-2.481-.854a11.065,11.065,0,0,1,1.956-1.245s2.272-1.569,2.619-2.619,1.574-.173,1.574-.173c1.747,2.619,2.1-.7,2.445-.351a7.888,7.888,0,0,1,.8,1.872C814.509,721.291,814.607,721.62,814.607,721.62Z" transform="translate(-469.995 -471.828)"/><path class="d" d="M814.607,723.991s-1.049,1.921-7.162,2.619c-3.174.36-3.2-.213-2.481-.854.5.316,1.5.445,3.526-.369,2.912-1.191,5.024-1.881,5.873-2.147C814.509,723.662,814.607,723.991,814.607,723.991Z" transform="translate(-469.995 -474.2)"/><path class="d" d="M817.324,671.312a13.686,13.686,0,0,0-.7-5.068,9.477,9.477,0,0,1,0-3.317c.347-1.4-1.4-8.212-1.4-8.212l-1.4-6.815-1.209.071L814,654.715s1.747,6.811,1.4,8.211a9.477,9.477,0,0,0,0,3.317,13.286,13.286,0,0,1,.7,5.068,36.82,36.82,0,0,0,.525,9.087,1.53,1.53,0,0,1-.507.72,1.142,1.142,0,0,0,1.729-.72A36.824,36.824,0,0,1,817.324,671.312Z" transform="translate(-474.459 -432.355)"/><path class="b" d="M805.359,562.42a6.225,6.225,0,0,0-3.3.938,5.935,5.935,0,0,0-6.669,3.179,7.238,7.238,0,0,0-2.263,5.406c0,3.717,2.5,6.727,5.588,6.727a5.644,5.644,0,0,0,5.064-3.872,6.137,6.137,0,0,0,1.574.2,6.291,6.291,0,0,0,0-12.582Z" transform="translate(-463.632 -384.878)"/><path class="h" d="M823.476,650.65l.525,1.4s.525,9.261.347,10.137.7,4,.7,4a22.367,22.367,0,0,1,1.223,9.781l.173,4.891s.7,1.921.351,2.272-2.983-.311-2.983-.311.351-3.668-.889-5.94S821,668.838,821,668.838s-1.747-3.494-1.747-4.89-2.8-12.755-2.8-12.755Z" transform="translate(-476.592 -433.882)"/><path class="b" d="M801.563,636.519s.178-6.291.889-8.211a13.041,13.041,0,0,0,.778-2.788s10.577,1.912,11.453,1.214a15.173,15.173,0,0,0,.351,2.619,25.123,25.123,0,0,1,.7,6.642c-.191,2.1,0,2.094,0,2.094s-7.167,1.049-7.34,0-.7-1.045-.7-1.045S801.216,636.848,801.563,636.519Z" transform="translate(-468.31 -419.925)"/><g class="a" transform="translate(333.253 206.809)"><path d="M807.346,649.81s-4.419-.12-5.753-.36v.36c-.347.347,6.118.525,6.118.525a.445.445,0,0,1,.24.1C807.715,649.81,807.346,649.81,807.346,649.81Z" transform="translate(-801.58 -640.025)"/><path d="M823.485,630.869a15.169,15.169,0,0,1-.351-2.619.753.753,0,0,1-.3.107,8.836,8.836,0,0,0,.3,1.987,27.75,27.75,0,0,1,.7,6.642c-.191,2.1,0,2.094,0,2.094s-5.669.831-7.042.276a2.114,2.114,0,0,0,.053.249c.173,1.049,7.34,0,7.34,0s-.178,0,0-2.094A25.976,25.976,0,0,0,823.485,630.869Z" transform="translate(-810.028 -628.25)"/><path d="M807.346,649.81s-4.419-.12-5.753-.36v.36c-.347.347,6.118.525,6.118.525a.445.445,0,0,1,.24.1C807.715,649.81,807.346,649.81,807.346,649.81Z" transform="translate(-801.58 -640.025)"/><path d="M823.485,630.869a15.169,15.169,0,0,1-.351-2.619.753.753,0,0,1-.3.107,8.836,8.836,0,0,0,.3,1.987,27.75,27.75,0,0,1,.7,6.642c-.191,2.1,0,2.094,0,2.094s-5.669.831-7.042.276a2.114,2.114,0,0,0,.053.249c.173,1.049,7.34,0,7.34,0s-.178,0,0-2.094A25.976,25.976,0,0,0,823.485,630.869Z" transform="translate(-810.028 -628.25)"/></g><path class="h" d="M814.2,584.936a2.317,2.317,0,0,0,.667.863,1.5,1.5,0,0,0,.627.271c-.391.227-.818.4-1.209.622a21.517,21.517,0,0,0-1.778,1.334,3.619,3.619,0,0,1-2.041.791,2.5,2.5,0,0,0,.284-2.485,2.322,2.322,0,0,1-.311-.862,1.55,1.55,0,0,1,.858-1.156c.333-.227.676-.445,1.023-.662.271-.169.68-.525,1.023-.511s.382.316.445.627A4.926,4.926,0,0,0,814.2,584.936Z" transform="translate(-473.248 -396.386)"/><path class="d" d="M814.2,584.936a2.317,2.317,0,0,0,.667.863,1.5,1.5,0,0,0,.627.271c-.391.227-.818.4-1.209.622a21.517,21.517,0,0,0-1.778,1.334,3.619,3.619,0,0,1-2.041.791,2.5,2.5,0,0,0,.284-2.485,2.322,2.322,0,0,1-.311-.862,1.55,1.55,0,0,1,.858-1.156c.333-.227.676-.445,1.023-.662.271-.169.68-.525,1.023-.511s.382.316.445.627A4.926,4.926,0,0,0,814.2,584.936Z" transform="translate(-473.248 -396.386)"/><circle class="h" cx="4.019" cy="4.019" r="4.019" transform="translate(341.029 190.822)"/><path class="i" d="M834.619,724.448c0,.351-.7,1.223-.7,1.223a8.651,8.651,0,0,1-4.192-.525c-.351-.173.173-1.223.173-1.223l.04-.084a4.242,4.242,0,0,1,.662-1.138,4.974,4.974,0,0,0,.556-1.778c1.085-1.778,3.01.769,3.01.769s.245,1.334.373,2.143A6.089,6.089,0,0,1,834.619,724.448Z" transform="translate(-483.894 -472.562)"/><path class="d" d="M834.619,728.862c0,.351-.7,1.223-.7,1.223a8.652,8.652,0,0,1-4.192-.525c-.351-.173.173-1.223.173-1.223l.04-.084a8.447,8.447,0,0,0,3.806.783l.8-.8C834.588,728.538,834.619,728.774,834.619,728.862Z" transform="translate(-483.894 -476.977)"/><circle class="h" cx="3.93" cy="3.93" r="3.93" transform="translate(333.08 182.521)"/><path class="h" d="M801.31,598.827a4.935,4.935,0,0,0-1.094,3.312l-.133,1.738a8.772,8.772,0,0,0-.031,1.409c0,.289.071.582.1.889s.036.694.04,1.045v2.57a3.032,3.032,0,0,0,.285,1.543,1.049,1.049,0,0,0,1.334.48,1.52,1.52,0,0,0,.551-.854,13.272,13.272,0,0,0,.889-3.254c.036-.387.04-.774.076-1.16s.1-.791.16-1.183c.249-1.636.36-3.29.471-4.939.031-.489.471-2.414-.169-2.628-.311-.1-.956.218-1.254.325A3.529,3.529,0,0,0,801.31,598.827Z" transform="translate(-467.47 -404.515)"/><path class="d" d="M801.31,598.827a4.935,4.935,0,0,0-1.094,3.312l-.133,1.738a8.772,8.772,0,0,0-.031,1.409c0,.289.071.582.1.889s.036.694.04,1.045v2.57a3.032,3.032,0,0,0,.285,1.543,1.049,1.049,0,0,0,1.334.48,1.52,1.52,0,0,0,.551-.854,13.272,13.272,0,0,0,.889-3.254c.036-.387.04-.774.076-1.16s.1-.791.16-1.183c.249-1.636.36-3.29.471-4.939.031-.489.471-2.414-.169-2.628-.311-.1-.956.218-1.254.325A3.529,3.529,0,0,0,801.31,598.827Z" transform="translate(-467.47 -404.515)"/><path class="i" d="M811.921,588.16a21.553,21.553,0,0,1-4.717,2.8s-1.036,1.183-1.214,1.467-.534,3.423-.889,4.126a3.339,3.339,0,0,0,0,3.841,6.66,6.66,0,0,1,.173,2.1c-.173.525-.809,2.445-.231,2.534s2.33,1.307,3.9.96,7.429,1.334,7.429,1.334.969-9,1.672-10.594l-1.574-.525s-4.366-2.619-1.747-6.638C814.718,589.56,812.264,589.036,811.921,588.16Z" transform="translate(-469.932 -399.174)"/><path class="b" d="M796.7,610.416l3.61,2.556a.267.267,0,0,0,.316,0l.978-.734a.276.276,0,0,0,0-.418l-2.779-2.468a.267.267,0,0,0-.271-.053l-1.783.64a.271.271,0,0,0-.071.476Z" transform="translate(-465.555 -410.907)"/><path class="h" d="M799,620.555a9.673,9.673,0,0,1-.378-2.725l-.053-1.232a3.557,3.557,0,0,1,.129-1.423,2.325,2.325,0,0,1,1.5-1.311,5.174,5.174,0,0,1,2.041-.147.524.524,0,0,1,.262.071.489.489,0,0,1,.142.24,1.61,1.61,0,0,1,.08,1.285,1.333,1.333,0,0,1-.409.422c-.485.347-1.049.578-1.507.956a.547.547,0,0,0-.2.258.6.6,0,0,0,0,.28,4.482,4.482,0,0,0,.231.716.707.707,0,0,0,.2.3c.084.071.2.1.284.164.191.156.591.36.569.6a19.917,19.917,0,0,1-.809,2.765C800.68,623.5,799.261,621.307,799,620.555Z" transform="translate(-466.644 -413.346)"/><g class="a" transform="translate(337.877 197.286)"><path d="M812.078,628.2h-.1a2.992,2.992,0,0,0,1.143,0h.111A4,4,0,0,0,812.078,628.2Z" transform="translate(-811.98 -618.674)"/><path d="M830.686,606.83c-.627,1.409-1.552,9.043-1.716,10.559.614.16,1.018.276,1.018.276s.96-8.981,1.663-10.572Z" transform="translate(-821.417 -606.83)"/></g><path class="h" d="M819.249,595.622a1.334,1.334,0,0,0,.574.867,7.7,7.7,0,0,1,1.018,1.031,7.3,7.3,0,0,1,1.009,2.023,24.781,24.781,0,0,1,.84,2.765c-2.223,1.031-4.748.983-7.113,1.663a5.677,5.677,0,0,0-2.667,1.578,3.677,3.677,0,0,0-.983,2.894.378.378,0,0,0,.053.173.374.374,0,0,0,.311.125,2.667,2.667,0,0,0,1.632-.56,7.761,7.761,0,0,0,1.249-1.227,2.009,2.009,0,0,1,.889-.658,14.551,14.551,0,0,1,4-.391,50.428,50.428,0,0,0,5.962-.471.48.48,0,0,0,.534-.534c.2-2.623-.778-5.184-1.778-7.616q-.6-1.463-1.236-2.912a8.624,8.624,0,0,0-1.512-2.588,2.668,2.668,0,0,0-.889-.658,3.76,3.76,0,0,0-1.191-.222A8.449,8.449,0,0,0,818,590.87a4.163,4.163,0,0,0-.187,1.009,8.743,8.743,0,0,0,1.076,3.41C818.955,595.453,819.146,595.462,819.249,595.622Z" transform="translate(-474.063 -400.657)"/><path class="j" d="M811.854,606.67a3.258,3.258,0,0,0-.445,1.7,2.286,2.286,0,0,0,.111.694,2.25,2.25,0,0,0,1.418,1.334" transform="translate(-473.786 -409.455)"/><path class="b" d="M807.447,572.07a2.041,2.041,0,0,0-.645.1,4.263,4.263,0,0,0-3.557-1.5c-2.125,0-3.846,1.1-3.846,2.45s1.721,2.445,3.846,2.445a5.41,5.41,0,0,0,2.307-.489,2.094,2.094,0,1,0,1.885-3.005Z" transform="translate(-467.116 -389.46)"/><path class="d" d="M807.609,577.838a2.09,2.09,0,0,1-1.885-1.187,5.412,5.412,0,0,1-2.307.49c-2.121,0-3.841-1.094-3.841-2.445a1.473,1.473,0,0,1,0-.245,1.659,1.659,0,0,0-.2.769c0,1.334,1.721,2.445,3.846,2.445a5.41,5.41,0,0,0,2.307-.489,2.094,2.094,0,0,0,3.943-.52A2.085,2.085,0,0,1,807.609,577.838Z" transform="translate(-467.105 -391.56)"/><path class="d" d="M795.373,567.569a5.935,5.935,0,0,1,6.669-3.179,6.286,6.286,0,0,1,9.568,4.828v-.525a6.286,6.286,0,0,0-9.59-5.335,5.935,5.935,0,0,0-6.669,3.179,7.238,7.238,0,0,0-2.263,5.406v.525A7.114,7.114,0,0,1,795.373,567.569Z" transform="translate(-463.61 -384.878)"/><path class="f" d="M882.157,517.865c1.16-2.147-.156-4.784-1.672-6.7s-3.357-3.908-3.317-6.353c.053-3.508,3.779-5.58,6.758-7.442a32.856,32.856,0,0,0,6.064-4.89,8.861,8.861,0,0,0,1.867-2.494,10.244,10.244,0,0,0,.56-4.446q-.2-7.514-.742-15.009" transform="translate(-510.31 -333.841)"/><path class="c" d="M908.853,463.412a5.464,5.464,0,0,0-2.73-4.481l-1.227,2.423.036-2.934a5.37,5.37,0,0,0-1.8-.218,5.473,5.473,0,1,0,5.722,5.211Z" transform="translate(-521.832 -326.99)"/><path class="c" d="M887.652,543.3a5.473,5.473,0,1,1,.262-4.41l-3.419,2.783,3.761-.889A5.441,5.441,0,0,1,887.652,543.3Z" transform="translate(-510.39 -369.827)"/><path class="c" d="M887.324,515.685a5.473,5.473,0,0,1-1.738-10.737l-.027,2.254,1.24-2.45h0a5.474,5.474,0,1,1,.511,10.937Z" transform="translate(-512.764 -352.846)"/><path class="c" d="M917.185,495.8a5.473,5.473,0,1,1,2.423-10.225l-.969,2.668,1.992-1.912a5.442,5.442,0,0,1,1.778,3.779,5.283,5.283,0,0,1-.138,1.507A5.473,5.473,0,0,1,917.185,495.8Z" transform="translate(-529.341 -341.803)"/><path class="d" d="M908.112,468.617c-1.263.142-2.494.534-3.761.614a4.078,4.078,0,0,1-3.463-1.214,16.977,16.977,0,0,1-1.009-1.778,3.935,3.935,0,0,0-1.378-1.3,5.473,5.473,0,1,0,10.225,3.632C908.521,468.581,908.317,468.594,908.112,468.617Z" transform="translate(-521.825 -330.736)"/><path class="d" d="M917.213,499.717a5.477,5.477,0,0,1-5.206-7.807,4.049,4.049,0,0,1,1.1,1.1,17.539,17.539,0,0,0,1.085,1.81,4.453,4.453,0,0,0,3.628,1.271c1.32-.062,2.6-.445,3.912-.556.182,0,.369-.031.551-.036A5.473,5.473,0,0,1,917.213,499.717Z" transform="translate(-529.369 -345.716)"/><path class="d" d="M887.324,519.714A5.468,5.468,0,0,1,882.074,512a4.511,4.511,0,0,1,1.156,1.111c.445.6.689,1.294,1.187,1.845a5.066,5.066,0,0,0,3.877,1.36c1.4-.031,2.668-.365,4-.467A5.473,5.473,0,0,1,887.324,519.714Z" transform="translate(-512.765 -356.874)"/><path class="d" d="M887.691,547.706a5.477,5.477,0,0,1-9.981-4.446,5.361,5.361,0,0,1,1.2,1.071c.525.636.867,1.334,1.467,1.947a6.875,6.875,0,0,0,4.535,1.592,23.967,23.967,0,0,0,2.779-.165Z" transform="translate(-510.428 -374.236)"/><path class="f" d="M1041.157,669.865c1.16-2.147-.156-4.784-1.672-6.7s-3.357-3.908-3.317-6.353c.053-3.508,3.779-5.58,6.758-7.442a32.86,32.86,0,0,0,6.064-4.89,8.862,8.862,0,0,0,1.867-2.494,10.244,10.244,0,0,0,.56-4.446q-.191-7.513-.742-15.009" transform="translate(-598.621 -418.264)"/><path class="c" d="M1067.881,615.414a5.464,5.464,0,0,0-2.73-4.481l-1.227,2.423.036-2.934a5.37,5.37,0,0,0-1.778-.218,5.473,5.473,0,1,0,5.722,5.211Z" transform="translate(-610.17 -411.414)"/><path class="c" d="M1046.652,695.3a5.473,5.473,0,1,1,.262-4.41l-3.419,2.783,3.761-.889A5.441,5.441,0,0,1,1046.652,695.3Z" transform="translate(-598.7 -454.25)"/><path class="c" d="M1046.324,667.685a5.473,5.473,0,0,1-1.738-10.737l-.027,2.254,1.24-2.45h0a5.474,5.474,0,1,1,.511,10.937Z" transform="translate(-601.075 -437.268)"/><path class="c" d="M1076.185,647.8a5.473,5.473,0,1,1,2.423-10.225l-.969,2.667,1.992-1.912a5.442,5.442,0,0,1,1.778,3.779,5.288,5.288,0,0,1-.138,1.507A5.473,5.473,0,0,1,1076.185,647.8Z" transform="translate(-617.652 -426.226)"/><path class="d" d="M1067.112,620.617c-1.263.142-2.494.534-3.761.614a4.078,4.078,0,0,1-3.463-1.214,16.988,16.988,0,0,1-1.009-1.778,3.935,3.935,0,0,0-1.378-1.3,5.473,5.473,0,1,0,10.225,3.632C1067.521,620.581,1067.317,620.594,1067.112,620.617Z" transform="translate(-610.135 -415.159)"/><path class="d" d="M1076.213,651.717a5.477,5.477,0,0,1-5.206-7.807,4.05,4.05,0,0,1,1.1,1.1,17.561,17.561,0,0,0,1.085,1.81,4.453,4.453,0,0,0,3.628,1.271c1.32-.062,2.6-.445,3.912-.556.182,0,.369-.031.551-.036A5.473,5.473,0,0,1,1076.213,651.717Z" transform="translate(-617.68 -430.139)"/><path class="d" d="M1046.324,671.714a5.468,5.468,0,0,1-5.25-7.714,4.511,4.511,0,0,1,1.156,1.112c.445.6.689,1.294,1.187,1.845a5.066,5.066,0,0,0,3.877,1.36c1.4-.031,2.667-.365,4-.467A5.473,5.473,0,0,1,1046.324,671.714Z" transform="translate(-601.076 -441.297)"/><path class="d" d="M1046.691,699.706a5.477,5.477,0,0,1-9.981-4.446,5.361,5.361,0,0,1,1.2,1.071c.525.636.889,1.334,1.467,1.947a6.874,6.874,0,0,0,4.535,1.592,23.978,23.978,0,0,0,2.779-.164Z" transform="translate(-598.739 -458.659)"/><path class="k" d="M455.533,572.314a4.361,4.361,0,0,0-1.738-3.521,240.8,240.8,0,0,0-7.674-8.816h0a4.338,4.338,0,0,0-.631-.147h-.751a5.006,5.006,0,0,0-4.837,4.277c-1.56-.36-2.988.107-3.25,1.094a1.334,1.334,0,0,0,.044.791,3.441,3.441,0,0,0,2.294,1.858l.151.044.227.058h.049a3.931,3.931,0,0,0-.373,1.685,3.886,3.886,0,0,0,2.094,3.468l-.1.062a1.387,1.387,0,0,0-.338.471,7.051,7.051,0,0,0-.654,1.574c-.111.471-.129.96-.267,1.427-.258.858-.916,1.583-.991,2.476-.036.4.031.889-.253,1.147a1.387,1.387,0,0,1-.227.16,1.836,1.836,0,0,0-.493.52,1.725,1.725,0,0,1-.347.5c-.258.191-.68.173-.8.471s.2.649.124.974-.351.387-.551.569a1.978,1.978,0,0,0-.476.889,2.917,2.917,0,0,1-2.4-.614,4.485,4.485,0,0,1,.249.889,3.9,3.9,0,0,0-1.294-.649,4.085,4.085,0,0,1-1.378-1.022l.738-.1-3.259-4.975-.965-.2.863,1.658a.529.529,0,0,0-.293.351,1.508,1.508,0,0,0-.031.565,10.107,10.107,0,0,0,.222,1.334l.249,1.165c.022.107.049.218.08.325a3.063,3.063,0,0,0-.965.107,8.4,8.4,0,0,0-2.005-.476,1.113,1.113,0,0,0-.445,0,1.152,1.152,0,0,0-.422.342,13.679,13.679,0,0,0-1.489,2.1,73.256,73.256,0,0,1-6.286,8.469c-1.512.614-3.036,1.2-4.561,1.778l-3.281,1.254a4.974,4.974,0,0,1-2.036.445c-.311,0-.7-.067-.889.2a1.873,1.873,0,0,0-.2.445l-.338.036h0a3.886,3.886,0,0,0-.787-1.449.5.5,0,0,0-.369.285c-.08.147-.129.307-.222.445-.173.258-.48.382-.7.6s-.356.556-.6.778a2.356,2.356,0,0,1-1.116.445,7.041,7.041,0,0,0-1.747.662,2.814,2.814,0,0,1-.645.3,2.422,2.422,0,0,1-.76.027l-1.734-.129a1.369,1.369,0,0,0-.467.022.889.889,0,0,0-.551.889,1.4,1.4,0,0,0,.551.956,3.53,3.53,0,0,0,.987.511,28.968,28.968,0,0,0,4.624,1.369v.351a7.891,7.891,0,0,0,3.557.845.551.551,0,0,0,.267-.049.587.587,0,0,0,.222-.347,14.3,14.3,0,0,0,.694-3.406h0a1.78,1.78,0,0,0,.627-.16c.6-.165,1.191.245,1.809.311a4.944,4.944,0,0,0,2.183-.631l.311-.1a3.416,3.416,0,0,1-.72.689c-.3.213-.631.374-.92.6a6.348,6.348,0,0,1-.782.6,4.906,4.906,0,0,1-.6.231,3.957,3.957,0,0,0-.858.445,1.739,1.739,0,0,0-.582.569.854.854,0,0,0-.049.8.844.844,0,0,0,.574.4,2.35,2.35,0,0,0,.707,0c.943-.071,1.881-.156,2.819-.24a7.534,7.534,0,0,0,1.178-.169c.2-.049.409-.116.614-.173a5.478,5.478,0,0,1,1.071-.16.89.89,0,0,1,.311.031c.218.071.373.293.6.338a.889.889,0,0,0,.445-.058,9.911,9.911,0,0,1,2.085-.222.861.861,0,0,0,.809-.36c.142-.285-.116-.742-.231-1.12a3.43,3.43,0,0,1-.1-.738,4.62,4.62,0,0,0-.516-1.752,4.572,4.572,0,0,1-.387-.8,20.217,20.217,0,0,0,3.837-1.947,6.861,6.861,0,0,1,2.187-1.054,5.948,5.948,0,0,1,2.748.32,62.508,62.508,0,0,1,6.3,2.2c.983.4,1.961.831,2.974,1.138a4.636,4.636,0,0,0,1.058,1.027,4.89,4.89,0,0,0,2.29.627,30,30,0,0,0,3.223.12,5.436,5.436,0,0,0,2.4-.445,2.465,2.465,0,0,0,.5-.333,1.992,1.992,0,0,0,1.583-.582,3.837,3.837,0,0,0,1.2-1.9c.262-1.014.062-2.223.685-3.032.165-.222.382-.4.547-.622a1.752,1.752,0,0,0,.285-1.027.206.206,0,0,1,.027-.04,3.766,3.766,0,0,0,.267-1.023,5.849,5.849,0,0,1,.289-.809,24.992,24.992,0,0,0,.827-2.4,14.005,14.005,0,0,0,.382-1.645c.067-.445.107-.889.142-1.334a8.283,8.283,0,0,1,.4-2.058,16.753,16.753,0,0,0,.934-4.926v-.1a3.3,3.3,0,0,0,2.925-3.361,3.507,3.507,0,0,0-.307-1.436,4.446,4.446,0,0,0,.6-2.241ZM439.625,591.64c.049.173.107.342.164.511-.262-.253-.516-.516-.778-.774.1.036.209.067.307.107a1.654,1.654,0,0,1,.293.156Zm-1.258-.854c-1.538-1.334-3.317-2.37-4.89-3.663.858.422,1.694.916,2.521,1.387q1.472.84,2.983,1.614a2.441,2.441,0,0,1-.627.662Zm.654-3.361.076-.076v.529l-.413-.142a3.682,3.682,0,0,0,.325-.311Zm-13.529,3.6a12.728,12.728,0,0,0,1.636-2.334,15.713,15.713,0,0,0,2.441,2.725C428.213,591.244,426.852,591.1,425.492,591.027Z" transform="translate(-243.02 -383.44)"/><path class="l" d="M415.35,438.25l.969.2,3.3,4.886-1.454.2Z" transform="translate(-230.691 -243.609)"/><path class="m" d="M414.49,645.4a19.014,19.014,0,0,0,.969,2.521,24.008,24.008,0,0,0,3.223-.92,10.154,10.154,0,0,0-.671-.889,3.317,3.317,0,0,0-.911-.7,2.507,2.507,0,0,0-1.107,0C415.495,645.4,414.992,645.408,414.49,645.4Z" transform="translate(-253.332 -430.939)"/><path class="l" d="M406.729,644.952a2.01,2.01,0,0,1-1.1-1.254,4.037,4.037,0,0,0-.84-1.5.48.48,0,0,0-.373.28c-.08.142-.129.3-.218.445-.178.253-.489.378-.711.591s-.356.547-.6.765a2.364,2.364,0,0,1-1.125.445,7.3,7.3,0,0,0-1.778.654,3.072,3.072,0,0,1-.654.293,2.59,2.59,0,0,1-.765,0l-1.752-.125a1.365,1.365,0,0,0-.445,0,.849.849,0,0,0-.556.889,1.334,1.334,0,0,0,.556.943,3.69,3.69,0,0,0,1,.507,29.3,29.3,0,0,0,4.695,1.334v.347a8.127,8.127,0,0,0,3.579.831.6.6,0,0,0,.267-.044.587.587,0,0,0,.222-.347,13.87,13.87,0,0,0,.734-3.806,3.031,3.031,0,0,0-.076-.983c-.1-.316.231-.182-.071-.307" transform="translate(-242.956 -429.189)"/><path class="l" d="M452.854,631.809c-5.193.311-10.323-1.209-15.525-1.369a7.582,7.582,0,0,0-1.93.12,9.721,9.721,0,0,0-1.912.742c-2.788,1.3-5.673,2.374-8.554,3.446l-3.312,1.232a5.017,5.017,0,0,1-2.05.445c-.316,0-.7-.067-.889.2a3.243,3.243,0,0,0,.071,2.868c.116.289.311.6.622.636a1.809,1.809,0,0,0,.631-.16c.6-.16,1.2.245,1.823.311a5.123,5.123,0,0,0,2.2-.622,19.1,19.1,0,0,1,3.77-.64,16.893,16.893,0,0,0,5.9-2.45,6.891,6.891,0,0,1,2.2-1.04,6.09,6.09,0,0,1,2.77.316A63.574,63.574,0,0,1,445.029,638a29.613,29.613,0,0,0,3.317,1.214,12,12,0,0,0,7.438-.445c.831-.329,1.734-.889,1.778-1.8.031-.511-.369-.96-.631-1.4-.169-.28-.342-.56-.525-.831C455.517,633.441,454.432,631.716,452.854,631.809Z" transform="translate(-255.488 -422.648)"/><path class="d" d="M452.854,631.809c-5.193.311-10.323-1.209-15.525-1.369a7.582,7.582,0,0,0-1.93.12,9.721,9.721,0,0,0-1.912.742c-2.788,1.3-5.673,2.374-8.554,3.446l-3.312,1.232a5.017,5.017,0,0,1-2.05.445c-.316,0-.7-.067-.889.2a3.243,3.243,0,0,0,.071,2.868c.116.289.311.6.622.636a1.809,1.809,0,0,0,.631-.16c.6-.16,1.2.245,1.823.311a5.123,5.123,0,0,0,2.2-.622,19.1,19.1,0,0,1,3.77-.64,16.893,16.893,0,0,0,5.9-2.45,6.891,6.891,0,0,1,2.2-1.04,6.09,6.09,0,0,1,2.77.316A63.574,63.574,0,0,1,445.029,638a29.613,29.613,0,0,0,3.317,1.214,12,12,0,0,0,7.438-.445c.831-.329,1.734-.889,1.778-1.8.031-.511-.369-.96-.631-1.4-.169-.28-.342-.56-.525-.831C455.517,633.441,454.432,631.716,452.854,631.809Z" transform="translate(-255.488 -422.648)"/><path class="m" d="M436.92,643.3q1.218.413,2.459.765c.445-.76,1.334-1.289,1.525-2.161a.2.2,0,0,0,0-.116.214.214,0,0,0-.093-.084,4.659,4.659,0,0,0-1.929-.565c-.534-.031-.778.525-1.018.916C437.769,642.228,437.138,643.384,436.92,643.3Z" transform="translate(-265.79 -428.599)"/><path class="l" d="M429.448,643.239a1.778,1.778,0,0,1-1.2-.787c-.111-.2-.236-.471-.467-.445s-.307.267-.356.476a13.34,13.34,0,0,1-.671,2.307,4.331,4.331,0,0,1-1.436,1.89c-.3.209-.636.365-.934.587a6.409,6.409,0,0,1-.787.6,4.66,4.66,0,0,1-.6.222,4.191,4.191,0,0,0-.862.445,1.712,1.712,0,0,0-.591.565.813.813,0,0,0-.044.787.84.84,0,0,0,.573.391,2.421,2.421,0,0,0,.716,0c.947-.067,1.894-.151,2.841-.236a8.2,8.2,0,0,0,1.187-.164l.618-.169a4.919,4.919,0,0,1,1.08-.16.84.84,0,0,1,.316.031c.218.071.373.289.6.333a1,1,0,0,0,.445-.058,9.815,9.815,0,0,1,2.1-.218.887.887,0,0,0,.818-.356c.178-.347-.116-.734-.236-1.107a3.557,3.557,0,0,1-.1-.725,4.419,4.419,0,0,0-.52-1.725c-.24-.445-.569-.934-.4-1.4a1.334,1.334,0,0,0,.16-.485C431.636,643.066,429.884,643.337,429.448,643.239Z" transform="translate(-257.18 -429.081)"/><path class="m" d="M472.955,609.1a4.055,4.055,0,0,1-2.072-2.054c-.084-.2-.156-.4-.24-.6a4.563,4.563,0,0,0-1.236-1.721.609.609,0,0,0-.445-.191.485.485,0,0,0-.333.36,1.374,1.374,0,0,0-.036.556,9.9,9.9,0,0,0,.222,1.3l.253,1.147a2.518,2.518,0,0,0,.156.511,1.777,1.777,0,0,0,.422.5c.231.213.467.418.7.622a2.417,2.417,0,0,0,.445.307,2.584,2.584,0,0,0,.787.231,6.7,6.7,0,0,1,2.952,1.138v-.854a1.129,1.129,0,0,0-.222-.618A3.941,3.941,0,0,0,472.955,609.1Z" transform="translate(-283.374 -408.267)"/><path class="d" d="M472.955,609.1a4.055,4.055,0,0,1-2.072-2.054c-.084-.2-.156-.4-.24-.6a4.563,4.563,0,0,0-1.236-1.721.609.609,0,0,0-.445-.191.485.485,0,0,0-.333.36,1.374,1.374,0,0,0-.036.556,9.9,9.9,0,0,0,.222,1.3l.253,1.147a2.518,2.518,0,0,0,.156.511,1.777,1.777,0,0,0,.422.5c.231.213.467.418.7.622a2.417,2.417,0,0,0,.445.307,2.584,2.584,0,0,0,.787.231,6.7,6.7,0,0,1,2.952,1.138v-.854a1.129,1.129,0,0,0-.222-.618A3.941,3.941,0,0,0,472.955,609.1Z" transform="translate(-283.374 -408.267)"/><ellipse class="l" cx="1.263" cy="1.272" rx="1.263" ry="1.272" transform="translate(198.89 189.51)"/><path class="l" d="M489.526,590.433a1.365,1.365,0,0,0-1,.142,1.383,1.383,0,0,0-.342.467,6.781,6.781,0,0,0-.658,1.547c-.111.445-.129.947-.271,1.4-.258.845-.92,1.56-1,2.441-.036.4.031.858-.258,1.125a1.634,1.634,0,0,1-.227.165,1.707,1.707,0,0,0-.5.511,1.677,1.677,0,0,1-.351.485c-.258.191-.685.173-.809.445s.2.64.124.96-.356.382-.556.56a1.942,1.942,0,0,0-.48.889,2.965,2.965,0,0,1-2.419-.6,7.7,7.7,0,0,1,.378,2.765,1.129,1.129,0,0,1-.222.854,15.4,15.4,0,0,1,2.965.516,2.045,2.045,0,0,0,1.294,0,2.159,2.159,0,0,0,.6-.471,3.8,3.8,0,0,0,1.223-1.885,11.068,11.068,0,0,0,.022-1.276,7.194,7.194,0,0,1,.325-1.552,18.461,18.461,0,0,0,.565-3.192c.058-.667.636-1.2.938-1.778a8.707,8.707,0,0,0,1.2-3.557C490.086,590.989,489.944,590.477,489.526,590.433Z" transform="translate(-290.156 -400.416)"/><path class="d" d="M489.526,590.433a1.365,1.365,0,0,0-1,.142,1.383,1.383,0,0,0-.342.467,6.781,6.781,0,0,0-.658,1.547c-.111.445-.129.947-.271,1.4-.258.845-.92,1.56-1,2.441-.036.4.031.858-.258,1.125a1.634,1.634,0,0,1-.227.165,1.707,1.707,0,0,0-.5.511,1.677,1.677,0,0,1-.351.485c-.258.191-.685.173-.809.445s.2.64.124.96-.356.382-.556.56a1.942,1.942,0,0,0-.48.889,2.965,2.965,0,0,1-2.419-.6,7.7,7.7,0,0,1,.378,2.765,1.129,1.129,0,0,1-.222.854,15.4,15.4,0,0,1,2.965.516,2.045,2.045,0,0,0,1.294,0,2.159,2.159,0,0,0,.6-.471,3.8,3.8,0,0,0,1.223-1.885,11.068,11.068,0,0,0,.022-1.276,7.194,7.194,0,0,1,.325-1.552,18.461,18.461,0,0,0,.565-3.192c.058-.667.636-1.2.938-1.778a8.707,8.707,0,0,0,1.2-3.557C490.086,590.989,489.944,590.477,489.526,590.433Z" transform="translate(-290.156 -400.416)"/><path class="l" d="M465.386,622.639a11.719,11.719,0,0,1-2.748-2.294c-1.667-1.569-3.708-2.667-5.464-4.148a38.49,38.49,0,0,0-3.481-2.925,8.7,8.7,0,0,0-3.73-1.3.99.99,0,0,0-.445,0,1.022,1.022,0,0,0-.422.333,13.436,13.436,0,0,0-1.507,2.067c-2.223,3.779-5.384,6.953-8,10.466a.666.666,0,0,0-.129.249.618.618,0,0,0,.1.387l.534,1.04c.3.587.778,1.267,1.418,1.151a1.551,1.551,0,0,0,.742-.476l2.392-2.29,2.507-2.4a19.232,19.232,0,0,0,3.921-4.633c.747,1.3,2.076,2.147,2.983,3.334.347.445.631.947.943,1.427.493.765,1.058,1.485,1.618,2.223l2.876,3.668a5.5,5.5,0,0,0,1.334,1.334,5.091,5.091,0,0,0,2.307.618,30.481,30.481,0,0,0,3.25.116,5.6,5.6,0,0,0,2.423-.445,2.2,2.2,0,0,0,1.312-1.952,2.862,2.862,0,0,0-.413-1.214A9.908,9.908,0,0,0,465.386,622.639Z" transform="translate(-267.198 -412.384)"/><ellipse class="n" cx="0.974" cy="0.978" rx="0.974" ry="0.978" transform="translate(199.957 190.684)"/><path class="m" d="M501.8,588.714a1.872,1.872,0,0,1,.107,1.4,5.7,5.7,0,0,1-.627,1.294,6.162,6.162,0,0,1-.814,1.156,8.375,8.375,0,0,0,4.277-1.227,6.211,6.211,0,0,0,2.7-2.352,1.245,1.245,0,0,1-1-.187,3.557,3.557,0,0,1-.76-.707l-.751-.845a3.385,3.385,0,0,1-.445-.609,1.681,1.681,0,0,1-.2-.983,5.721,5.721,0,0,1-1,.827c-.538.351-1.129.6-1.672.951-.187.125-.614.32-.5.569S501.653,588.448,501.8,588.714Z" transform="translate(-301.086 -397.786)"/><path class="d" d="M501.8,588.714a1.872,1.872,0,0,1,.107,1.4,5.7,5.7,0,0,1-.627,1.294,6.162,6.162,0,0,1-.814,1.156,8.375,8.375,0,0,0,4.277-1.227,6.211,6.211,0,0,0,2.7-2.352,1.245,1.245,0,0,1-1-.187,3.557,3.557,0,0,1-.76-.707l-.751-.845a3.385,3.385,0,0,1-.445-.609,1.681,1.681,0,0,1-.2-.983,5.721,5.721,0,0,1-1,.827c-.538.351-1.129.6-1.672.951-.187.125-.614.32-.5.569S501.653,588.448,501.8,588.714Z" transform="translate(-301.086 -397.786)"/><path class="n" d="M496.117,592.663a1.267,1.267,0,0,0,0,1.467c.044.053.2.387.271.391a.244.244,0,0,0,.169-.089,11.152,11.152,0,0,0,.951-1.134,2.116,2.116,0,0,1,1.209-.791,2.614,2.614,0,0,1,1.667.52,1.583,1.583,0,0,1,.573.445,1.551,1.551,0,0,1,.187.636,30.629,30.629,0,0,1,.169,4.041,15.925,15.925,0,0,1-.191,2.912c-.1.493-.24.978-.307,1.48a9.45,9.45,0,0,0-.062,1.334v1.858a4.888,4.888,0,0,0,.071,1.018c.089.4.28.782.409,1.178a7.7,7.7,0,0,1,.271,1.391l.253,1.921a2.428,2.428,0,0,1-.227,1.778c-.164.218-.382.4-.551.614-.627.818-.445,1.987-.689,2.988a3.726,3.726,0,0,1-1.218,1.867,2.014,2.014,0,0,1-1.6.573,2.2,2.2,0,0,1-1.463-1.729,6.913,6.913,0,0,0-.751-2.254,5.98,5.98,0,0,0-1.485-1.24,2.565,2.565,0,0,1-1.16-1.507c-.049-.28,0-.569-.049-.854a2.014,2.014,0,0,0-1.24-1.632c-.4-.156-.889-.213-1.12-.578a2.7,2.7,0,0,0,1.169-1.569,8.061,8.061,0,0,0,.285-1.983l.133-2.223a7.425,7.425,0,0,1,.529-2.885c.2-.4.445-.778.645-1.174a12.75,12.75,0,0,0,.689-1.721c.32-.916.64-1.832.925-2.756a5.194,5.194,0,0,1,.507-1.285C495.322,593.255,495.668,592.752,496.117,592.663Z" transform="translate(-295.382 -401.588)"/><path class="l" d="M492.281,606.671h.591l.124-.889a1.853,1.853,0,0,1,.125-.52,3.11,3.11,0,0,1,.342-.5,6.5,6.5,0,0,0,.68-2.912,14.818,14.818,0,0,1,1.3-3.806l1.147-2.556a3.53,3.53,0,0,0,.249-.654,3.921,3.921,0,0,0,.071-.756c0-.4.124-1.836.138-2.223,0-.147-.325-.067-.391-.2-.142-.285-.338.485-.609.654a1.494,1.494,0,0,0-.529.774c-.249.64-.4,1.334-.631,1.97a4.024,4.024,0,0,1-1.071,1.743c-.236.2-.507.369-.729.591a3.99,3.99,0,0,0-.8,2.823C492.263,600.829,492.147,606.671,492.281,606.671Z" transform="translate(-296.503 -401.085)"/><path class="l" d="M504.763,590.395a2.018,2.018,0,0,0-1.054,1.445,7.31,7.31,0,0,1-.534,1.778c-.72,1.254-2.556,1.618-3.068,2.974a5.467,5.467,0,0,0-.2,1.4c-.089.974-.409,1.912-.507,2.881a12.837,12.837,0,0,0,.053,2.263l.645,7.656a10.226,10.226,0,0,1-.191,3.37,3.246,3.246,0,0,0,1.93-.32c.6-.276,1.151-.654,1.734-.974a17.857,17.857,0,0,0,2.974-1.672,1.817,1.817,0,0,0,.4-.445,3.845,3.845,0,0,0,.267-1,5.421,5.421,0,0,1,.289-.791,23.3,23.3,0,0,0,.836-2.365,13.588,13.588,0,0,0,.382-1.618c.071-.445.111-.889.147-1.334a7.825,7.825,0,0,1,.409-2.023,16.294,16.294,0,0,0,.938-4.855,2.538,2.538,0,0,0-.049-.711,3.8,3.8,0,0,0-.391-.814c-.267-.5-.445-1.054-.676-1.565a7.7,7.7,0,0,0-2.627-2.761A2,2,0,0,0,504.763,590.395Z" transform="translate(-300.475 -400.382)"/><path class="m" d="M472.594,615.345a4.637,4.637,0,0,1-1.223-.929c-.16-.187-.293-.4-.445-.582a3.028,3.028,0,0,0-1.538-.889,7.516,7.516,0,0,0-1.778-.173,3.227,3.227,0,0,0-1.187.142,1.209,1.209,0,0,0-.787.845,1.4,1.4,0,0,0,.6,1.245,2.828,2.828,0,0,0,1.2.578,9.547,9.547,0,0,0,1.08.129c2.125.222,4.023,1.378,5.886,2.432q2.454,1.4,5.006,2.6a10.4,10.4,0,0,0,.084-1.534c0-.382-.031-.969-.391-1.2a7.844,7.844,0,0,0-1.592-.476,25.057,25.057,0,0,1-3.205-1.3A15.952,15.952,0,0,1,472.594,615.345Z" transform="translate(-281.737 -412.84)"/><ellipse class="m" cx="3.788" cy="3.81" rx="3.788" ry="3.81" transform="translate(196.365 182.872)"/><path class="l" d="M502.262,599.577a6.072,6.072,0,0,0-.734,1.374c-.445.96-1.2,1.778-1.569,2.8s-.373,2.325-1.134,3.157a1.107,1.107,0,0,0-.333.48,2.292,2.292,0,0,1-.036.347c-.111.3-.6.316-.7.627-.027.089,0,.187-.044.276-.076.2-.342.231-.516.351-.369.249-.293.827-.556,1.187a1,1,0,0,1-.947.333,3.337,3.337,0,0,1-.983-.369.947.947,0,0,0-.356-.111.733.733,0,0,0-.409.142,2.521,2.521,0,0,0-1.023,2.156,7.041,7.041,0,0,0,.587,2.414.968.968,0,0,0,.191.36.849.849,0,0,0,.943.071,4.448,4.448,0,0,1,.92-.413c.587-.107,1.16.3,1.756.262a2.441,2.441,0,0,0,1.183-.52,6.536,6.536,0,0,0,1.592-1.334c.258-.342.445-.729.676-1.094a14.037,14.037,0,0,1,.956-1.276l2.187-2.667a6.144,6.144,0,0,0,.587-.809,5.7,5.7,0,0,0,.445-1.223,9.366,9.366,0,0,0,.445-2.174,8.352,8.352,0,0,0-.16-1.823,6.442,6.442,0,0,0-.445-1.738C504.312,599.354,503.156,598.536,502.262,599.577Z" transform="translate(-296.895 -405.247)"/><path class="o" d="M507.225,573.557a4.268,4.268,0,0,0-1.752-3.468,5.073,5.073,0,0,0-4.308-4.939,4.922,4.922,0,0,0-9.7.262c-1.574-.356-3.014.107-3.277,1.076s.849,2.223,2.507,2.668a4.672,4.672,0,0,0,1.609.16,4.926,4.926,0,0,0,3.388,2.112,5.055,5.055,0,0,0,3.7,3.815,4.246,4.246,0,0,0,1.143,1.578v.369a3.205,3.205,0,0,0,6.411,0,3.422,3.422,0,0,0-.307-1.418A4.285,4.285,0,0,0,507.225,573.557Z" transform="translate(-294.246 -384.198)"/><path class="d" d="M489.254,566.69c.262-.969,1.7-1.432,3.277-1.076a5.006,5.006,0,0,1,4.89-4.215h.325a4.819,4.819,0,0,0-1.4-.209,5.006,5.006,0,0,0-4.89,4.215c-1.574-.356-3.014.107-3.277,1.076s.849,2.223,2.508,2.668a4.888,4.888,0,0,0,.951.164C490.054,568.837,488.991,567.681,489.254,566.69Z" transform="translate(-294.24 -384.195)"/><path class="d" d="M506.9,587.726a3.339,3.339,0,0,1,0-.365,4.151,4.151,0,0,1-1.143-1.578,5.042,5.042,0,0,1-3.7-3.819,4.912,4.912,0,0,1-3.392-2.107,4.266,4.266,0,0,1-.947-.027,4.939,4.939,0,0,0,3.268,1.943,5.055,5.055,0,0,0,3.7,3.815,4.246,4.246,0,0,0,1.143,1.578v.369a3.263,3.263,0,0,0,3.188,3.317A3.317,3.317,0,0,1,506.9,587.726Z" transform="translate(-299.559 -394.548)"/><ellipse class="m" cx="0.582" cy="0.778" rx="0.582" ry="0.778" transform="translate(200.486 187.194) rotate(-37.22)"/></g></svg>